<svg xmlns="http://www.w3.org/2000/svg" viewBox="0 0 960 480" role="img" aria-label="Atlas Corpus Works">
  <defs>
    <linearGradient id="gn2dlhb" x1="0" y1="0" x2="1" y2="0">
      <stop offset="0%" stop-color="hsl(250 78% 62%)"/>
      <stop offset="50%" stop-color="hsl(40 72% 56%)"/>
      <stop offset="100%" stop-color="hsl(145 68% 60%)"/>
    </linearGradient>
    <linearGradient id="bgn2dlhb" x1="0" y1="0" x2="1" y2="1">
      <stop offset="0%" stop-color="#070a12"/>
      <stop offset="100%" stop-color="#0d1526"/>
    </linearGradient>
    <radialGradient id="halon2dlhb" cx="50%" cy="50%" r="60%">
      <stop offset="0%" stop-color="hsl(250 85% 58%)" stop-opacity="0.28"/>
      <stop offset="100%" stop-color="hsl(250 85% 58%)" stop-opacity="0"/>
    </radialGradient>
  </defs>
  <rect width="960" height="480" fill="url(#bgn2dlhb)"/>
  <path d="M0 40.0 H 197.9 V -20.2 H 960" fill="none" stroke="url(#gn2dlhb)" stroke-width="1.5" stroke-opacity="0.50"/><circle cx="197.9" cy="-20.2" r="3.2" fill="hsl(250 78% 62%)" opacity="0.8"/><path d="M0 120.0 H 685.2 V 79.8 H 960" fill="none" stroke="url(#gn2dlhb)" stroke-width="1.5" stroke-opacity="0.43"/><circle cx="685.2" cy="79.8" r="3.2" fill="hsl(250 78% 62%)" opacity="0.8"/><path d="M0 200.0 H 665.5 V 275.1 H 960" fill="none" stroke="url(#gn2dlhb)" stroke-width="1.5" stroke-opacity="0.53"/><circle cx="665.5" cy="275.1" r="3.2" fill="hsl(250 78% 62%)" opacity="0.8"/><path d="M0 280.0 H 815.5 V 201.2 H 960" fill="none" stroke="url(#gn2dlhb)" stroke-width="1.5" stroke-opacity="0.44"/><circle cx="815.5" cy="201.2" r="3.2" fill="hsl(250 78% 62%)" opacity="0.8"/><path d="M0 360.0 H 228.9 V 460.9 H 960" fill="none" stroke="url(#gn2dlhb)" stroke-width="1.5" stroke-opacity="0.36"/><circle cx="228.9" cy="460.9" r="3.2" fill="hsl(250 78% 62%)" opacity="0.8"/><path d="M0 440.0 H 729.0 V 484.5 H 960" fill="none" stroke="url(#gn2dlhb)" stroke-width="1.5" stroke-opacity="0.22"/><circle cx="729.0" cy="484.5" r="3.2" fill="hsl(250 78% 62%)" opacity="0.8"/>
  <rect x="-240" y="0" width="240" height="480" fill="url(#gn2dlhb)" opacity="0.06">
    <animate attributeName="x" from="-240" to="960" dur="14.3s" repeatCount="indefinite"/>
  </rect>
  <rect x="0" y="0" width="960" height="480" fill="none" stroke="hsl(40 72% 56%)" stroke-opacity="0.16" stroke-width="2"/>
</svg>
