<svg xmlns="http://www.w3.org/2000/svg" viewBox="0 0 960 480" role="img" aria-label="Curated Embedding Corpus v3">
  <defs>
    <linearGradient id="g90198w" x1="0" y1="0" x2="1" y2="0">
      <stop offset="0%" stop-color="hsl(258 78% 62%)"/>
      <stop offset="50%" stop-color="hsl(230 72% 56%)"/>
      <stop offset="100%" stop-color="hsl(210.39999999999998 68% 60%)"/>
    </linearGradient>
    <linearGradient id="bg90198w" x1="0" y1="0" x2="1" y2="1">
      <stop offset="0%" stop-color="#070a12"/>
      <stop offset="100%" stop-color="#0d1526"/>
    </linearGradient>
    <radialGradient id="halo90198w" cx="50%" cy="50%" r="60%">
      <stop offset="0%" stop-color="hsl(258 85% 58%)" stop-opacity="0.28"/>
      <stop offset="100%" stop-color="hsl(258 85% 58%)" stop-opacity="0"/>
    </radialGradient>
  </defs>
  <rect width="960" height="480" fill="url(#bg90198w)"/>
  <rect x="4.2" y="266.9" width="12.5" height="213.1" fill="url(#g90198w)" opacity="0.14" rx="2"/><rect x="25.0" y="138.8" width="12.5" height="341.2" fill="url(#g90198w)" opacity="0.15" rx="2"/><rect x="45.9" y="67.3" width="12.5" height="412.7" fill="url(#g90198w)" opacity="0.16" rx="2"/><rect x="66.8" y="66.2" width="12.5" height="413.8" fill="url(#g90198w)" opacity="0.18" rx="2"/><rect x="87.7" y="135.7" width="12.5" height="344.3" fill="url(#g90198w)" opacity="0.19" rx="2"/><rect x="108.5" y="262.3" width="12.5" height="217.7" fill="url(#g90198w)" opacity="0.20" rx="2"/><rect x="129.4" y="421.7" width="12.5" height="58.3" fill="url(#g90198w)" opacity="0.21" rx="2"/><rect x="150.3" y="280.9" width="12.5" height="199.1" fill="url(#g90198w)" opacity="0.22" rx="2"/><rect x="171.1" y="148.7" width="12.5" height="331.3" fill="url(#g90198w)" opacity="0.24" rx="2"/><rect x="192.0" y="71.1" width="12.5" height="408.9" fill="url(#g90198w)" opacity="0.25" rx="2"/><rect x="212.9" y="63.2" width="12.5" height="416.8" fill="url(#g90198w)" opacity="0.26" rx="2"/><rect x="233.7" y="126.5" width="12.5" height="353.5" fill="url(#g90198w)" opacity="0.27" rx="2"/><rect x="254.6" y="248.7" width="12.5" height="231.3" fill="url(#g90198w)" opacity="0.28" rx="2"/><rect x="275.5" y="406.3" width="12.5" height="73.7" fill="url(#g90198w)" opacity="0.30" rx="2"/><rect x="296.3" y="295.2" width="12.5" height="184.8" fill="url(#g90198w)" opacity="0.31" rx="2"/><rect x="317.2" y="159.0" width="12.5" height="321.0" fill="url(#g90198w)" opacity="0.32" rx="2"/><rect x="338.1" y="75.5" width="12.5" height="404.5" fill="url(#g90198w)" opacity="0.33" rx="2"/><rect x="359.0" y="60.9" width="12.5" height="419.1" fill="url(#g90198w)" opacity="0.34" rx="2"/><rect x="379.8" y="117.8" width="12.5" height="362.2" fill="url(#g90198w)" opacity="0.36" rx="2"/><rect x="400.7" y="235.4" width="12.5" height="244.6" fill="url(#g90198w)" opacity="0.37" rx="2"/><rect x="421.6" y="390.9" width="12.5" height="89.1" fill="url(#g90198w)" opacity="0.38" rx="2"/><rect x="442.4" y="309.7" width="12.5" height="170.3" fill="url(#g90198w)" opacity="0.39" rx="2"/><rect x="463.3" y="169.8" width="12.5" height="310.2" fill="url(#g90198w)" opacity="0.40" rx="2"/><rect x="484.2" y="80.6" width="12.5" height="399.4" fill="url(#g90198w)" opacity="0.42" rx="2"/><rect x="505.0" y="59.1" width="12.5" height="420.9" fill="url(#g90198w)" opacity="0.43" rx="2"/><rect x="525.9" y="109.7" width="12.5" height="370.3" fill="url(#g90198w)" opacity="0.44" rx="2"/><rect x="546.8" y="222.4" width="12.5" height="257.6" fill="url(#g90198w)" opacity="0.45" rx="2"/><rect x="567.7" y="375.5" width="12.5" height="104.5" fill="url(#g90198w)" opacity="0.46" rx="2"/><rect x="588.5" y="324.4" width="12.5" height="155.6" fill="url(#g90198w)" opacity="0.47" rx="2"/><rect x="609.4" y="181.1" width="12.5" height="298.9" fill="url(#g90198w)" opacity="0.49" rx="2"/><rect x="630.3" y="86.2" width="12.5" height="393.8" fill="url(#g90198w)" opacity="0.50" rx="2"/><rect x="651.1" y="58.1" width="12.5" height="421.9" fill="url(#g90198w)" opacity="0.51" rx="2"/><rect x="672.0" y="102.1" width="12.5" height="377.9" fill="url(#g90198w)" opacity="0.52" rx="2"/><rect x="692.9" y="209.7" width="12.5" height="270.3" fill="url(#g90198w)" opacity="0.53" rx="2"/><rect x="713.7" y="360.3" width="12.5" height="119.7" fill="url(#g90198w)" opacity="0.55" rx="2"/><rect x="734.6" y="339.3" width="12.5" height="140.7" fill="url(#g90198w)" opacity="0.56" rx="2"/><rect x="755.5" y="192.8" width="12.5" height="287.2" fill="url(#g90198w)" opacity="0.57" rx="2"/><rect x="776.3" y="92.4" width="12.5" height="387.6" fill="url(#g90198w)" opacity="0.58" rx="2"/><rect x="797.2" y="57.6" width="12.5" height="422.4" fill="url(#g90198w)" opacity="0.59" rx="2"/><rect x="818.1" y="95.0" width="12.5" height="385.0" fill="url(#g90198w)" opacity="0.61" rx="2"/><rect x="839.0" y="197.5" width="12.5" height="282.5" fill="url(#g90198w)" opacity="0.62" rx="2"/><rect x="859.8" y="345.2" width="12.5" height="134.8" fill="url(#g90198w)" opacity="0.63" rx="2"/><rect x="880.7" y="354.3" width="12.5" height="125.7" fill="url(#g90198w)" opacity="0.64" rx="2"/><rect x="901.6" y="204.9" width="12.5" height="275.1" fill="url(#g90198w)" opacity="0.65" rx="2"/><rect x="922.4" y="99.2" width="12.5" height="380.8" fill="url(#g90198w)" opacity="0.67" rx="2"/><rect x="943.3" y="57.8" width="12.5" height="422.2" fill="url(#g90198w)" opacity="0.68" rx="2"/>
  <rect x="-240" y="0" width="240" height="480" fill="url(#g90198w)" opacity="0.06">
    <animate attributeName="x" from="-240" to="960" dur="16.7s" repeatCount="indefinite"/>
  </rect>
  <rect x="0" y="0" width="960" height="480" fill="none" stroke="hsl(230 72% 56%)" stroke-opacity="0.16" stroke-width="2"/>
</svg>
