<svg xmlns="http://www.w3.org/2000/svg" viewBox="0 0 960 480" role="img" aria-label="Evaluation harness suite">
  <defs>
    <linearGradient id="g1c9u87" x1="0" y1="0" x2="1" y2="0">
      <stop offset="0%" stop-color="hsl(71 78% 62%)"/>
      <stop offset="50%" stop-color="hsl(43 72% 56%)"/>
      <stop offset="100%" stop-color="hsl(23.399999999999977 68% 60%)"/>
    </linearGradient>
    <linearGradient id="bg1c9u87" x1="0" y1="0" x2="1" y2="1">
      <stop offset="0%" stop-color="#070a12"/>
      <stop offset="100%" stop-color="#0d1526"/>
    </linearGradient>
    <radialGradient id="halo1c9u87" cx="50%" cy="50%" r="60%">
      <stop offset="0%" stop-color="hsl(71 85% 58%)" stop-opacity="0.28"/>
      <stop offset="100%" stop-color="hsl(71 85% 58%)" stop-opacity="0"/>
    </radialGradient>
  </defs>
  <rect width="960" height="480" fill="url(#bg1c9u87)"/>
  <rect x="3.7" y="144.5" width="11.1" height="335.5" fill="url(#g1c9u87)" opacity="0.14" rx="2"/><rect x="22.2" y="234.8" width="11.1" height="245.2" fill="url(#g1c9u87)" opacity="0.15" rx="2"/><rect x="40.6" y="345.2" width="11.1" height="134.8" fill="url(#g1c9u87)" opacity="0.16" rx="2"/><rect x="59.1" y="399.6" width="11.1" height="80.4" fill="url(#g1c9u87)" opacity="0.17" rx="2"/><rect x="77.5" y="283.6" width="11.1" height="196.4" fill="url(#g1c9u87)" opacity="0.18" rx="2"/><rect x="96.0" y="182.8" width="11.1" height="297.2" fill="url(#g1c9u87)" opacity="0.19" rx="2"/><rect x="114.5" y="107.4" width="11.1" height="372.6" fill="url(#g1c9u87)" opacity="0.20" rx="2"/><rect x="132.9" y="65.2" width="11.1" height="414.8" fill="url(#g1c9u87)" opacity="0.21" rx="2"/><rect x="151.4" y="60.3" width="11.1" height="419.7" fill="url(#g1c9u87)" opacity="0.22" rx="2"/><rect x="169.8" y="93.3" width="11.1" height="386.7" fill="url(#g1c9u87)" opacity="0.24" rx="2"/><rect x="188.3" y="160.9" width="11.1" height="319.1" fill="url(#g1c9u87)" opacity="0.25" rx="2"/><rect x="206.8" y="256.1" width="11.1" height="223.9" fill="url(#g1c9u87)" opacity="0.26" rx="2"/><rect x="225.2" y="369.3" width="11.1" height="110.7" fill="url(#g1c9u87)" opacity="0.27" rx="2"/><rect x="243.7" y="375.2" width="11.1" height="104.8" fill="url(#g1c9u87)" opacity="0.28" rx="2"/><rect x="262.2" y="261.4" width="11.1" height="218.6" fill="url(#g1c9u87)" opacity="0.29" rx="2"/><rect x="280.6" y="165.0" width="11.1" height="315.0" fill="url(#g1c9u87)" opacity="0.30" rx="2"/><rect x="299.1" y="95.9" width="11.1" height="384.1" fill="url(#g1c9u87)" opacity="0.31" rx="2"/><rect x="317.5" y="61.0" width="11.1" height="419.0" fill="url(#g1c9u87)" opacity="0.32" rx="2"/><rect x="336.0" y="64.0" width="11.1" height="416.0" fill="url(#g1c9u87)" opacity="0.33" rx="2"/><rect x="354.5" y="104.5" width="11.1" height="375.5" fill="url(#g1c9u87)" opacity="0.34" rx="2"/><rect x="372.9" y="178.4" width="11.1" height="301.6" fill="url(#g1c9u87)" opacity="0.35" rx="2"/><rect x="391.4" y="278.1" width="11.1" height="201.9" fill="url(#g1c9u87)" opacity="0.36" rx="2"/><rect x="409.8" y="393.6" width="11.1" height="86.4" fill="url(#g1c9u87)" opacity="0.37" rx="2"/><rect x="428.3" y="351.0" width="11.1" height="129.0" fill="url(#g1c9u87)" opacity="0.38" rx="2"/><rect x="446.8" y="239.9" width="11.1" height="240.1" fill="url(#g1c9u87)" opacity="0.39" rx="2"/><rect x="465.2" y="148.4" width="11.1" height="331.6" fill="url(#g1c9u87)" opacity="0.40" rx="2"/><rect x="483.7" y="85.8" width="11.1" height="394.2" fill="url(#g1c9u87)" opacity="0.42" rx="2"/><rect x="502.2" y="58.5" width="11.1" height="421.5" fill="url(#g1c9u87)" opacity="0.43" rx="2"/><rect x="520.6" y="69.3" width="11.1" height="410.7" fill="url(#g1c9u87)" opacity="0.44" rx="2"/><rect x="539.1" y="117.1" width="11.1" height="362.9" fill="url(#g1c9u87)" opacity="0.45" rx="2"/><rect x="557.5" y="197.0" width="11.1" height="283.0" fill="url(#g1c9u87)" opacity="0.46" rx="2"/><rect x="576.0" y="300.9" width="11.1" height="179.1" fill="url(#g1c9u87)" opacity="0.47" rx="2"/><rect x="594.5" y="418.1" width="11.1" height="61.9" fill="url(#g1c9u87)" opacity="0.48" rx="2"/><rect x="612.9" y="327.2" width="11.1" height="152.8" fill="url(#g1c9u87)" opacity="0.49" rx="2"/><rect x="631.4" y="219.3" width="11.1" height="260.7" fill="url(#g1c9u87)" opacity="0.50" rx="2"/><rect x="649.8" y="133.0" width="11.1" height="347.0" fill="url(#g1c9u87)" opacity="0.51" rx="2"/><rect x="668.3" y="77.2" width="11.1" height="402.8" fill="url(#g1c9u87)" opacity="0.52" rx="2"/><rect x="686.8" y="57.6" width="11.1" height="422.4" fill="url(#g1c9u87)" opacity="0.53" rx="2"/><rect x="705.2" y="76.2" width="11.1" height="403.8" fill="url(#g1c9u87)" opacity="0.54" rx="2"/><rect x="723.7" y="131.1" width="11.1" height="348.9" fill="url(#g1c9u87)" opacity="0.55" rx="2"/><rect x="742.2" y="216.6" width="11.1" height="263.4" fill="url(#g1c9u87)" opacity="0.56" rx="2"/><rect x="760.6" y="324.1" width="11.1" height="155.9" fill="url(#g1c9u87)" opacity="0.57" rx="2"/><rect x="779.1" y="421.3" width="11.1" height="58.7" fill="url(#g1c9u87)" opacity="0.58" rx="2"/><rect x="797.5" y="303.9" width="11.1" height="176.1" fill="url(#g1c9u87)" opacity="0.59" rx="2"/><rect x="816.0" y="199.5" width="11.1" height="280.5" fill="url(#g1c9u87)" opacity="0.61" rx="2"/><rect x="834.5" y="118.9" width="11.1" height="361.1" fill="url(#g1c9u87)" opacity="0.62" rx="2"/><rect x="852.9" y="70.1" width="11.1" height="409.9" fill="url(#g1c9u87)" opacity="0.63" rx="2"/><rect x="871.4" y="58.3" width="11.1" height="421.7" fill="url(#g1c9u87)" opacity="0.64" rx="2"/><rect x="889.8" y="84.6" width="11.1" height="395.4" fill="url(#g1c9u87)" opacity="0.65" rx="2"/><rect x="908.3" y="146.3" width="11.1" height="333.7" fill="url(#g1c9u87)" opacity="0.66" rx="2"/><rect x="926.8" y="237.2" width="11.1" height="242.8" fill="url(#g1c9u87)" opacity="0.67" rx="2"/><rect x="945.2" y="347.9" width="11.1" height="132.1" fill="url(#g1c9u87)" opacity="0.68" rx="2"/>
  <rect x="-240" y="0" width="240" height="480" fill="url(#g1c9u87)" opacity="0.06">
    <animate attributeName="x" from="-240" to="960" dur="19.1s" repeatCount="indefinite"/>
  </rect>
  <rect x="0" y="0" width="960" height="480" fill="none" stroke="hsl(43 72% 56%)" stroke-opacity="0.16" stroke-width="2"/>
</svg>
