<svg xmlns="http://www.w3.org/2000/svg" viewBox="0 0 960 480" role="img" aria-label="Realtime market feed">
  <defs>
    <linearGradient id="g1ldsvh" x1="0" y1="0" x2="1" y2="0">
      <stop offset="0%" stop-color="hsl(14 78% 62%)"/>
      <stop offset="50%" stop-color="hsl(254 72% 56%)"/>
      <stop offset="100%" stop-color="hsl(170 68% 60%)"/>
    </linearGradient>
    <linearGradient id="bg1ldsvh" x1="0" y1="0" x2="1" y2="1">
      <stop offset="0%" stop-color="#070a12"/>
      <stop offset="100%" stop-color="#0d1526"/>
    </linearGradient>
    <radialGradient id="halo1ldsvh" cx="50%" cy="50%" r="60%">
      <stop offset="0%" stop-color="hsl(14 85% 58%)" stop-opacity="0.28"/>
      <stop offset="100%" stop-color="hsl(14 85% 58%)" stop-opacity="0"/>
    </radialGradient>
  </defs>
  <rect width="960" height="480" fill="url(#bg1ldsvh)"/>
  <rect x="15.6" y="22.4" width="3.1" height="3.1" fill="hsl(170 68% 60%)" opacity="0.37"/><rect x="49.4" y="22.0" width="4.1" height="4.1" fill="hsl(254 72% 56%)" opacity="0.50"/><rect x="83.4" y="21.6" width="4.7" height="4.7" fill="hsl(14 78% 62%)" opacity="0.59"/><rect x="324.0" y="22.2" width="3.5" height="3.5" fill="hsl(170 68% 60%)" opacity="0.43"/><rect x="358.4" y="22.4" width="3.1" height="3.1" fill="hsl(170 68% 60%)" opacity="0.37"/><rect x="426.6" y="22.0" width="4.0" height="4.0" fill="hsl(254 72% 56%)" opacity="0.49"/><rect x="461.1" y="22.2" width="3.6" height="3.6" fill="hsl(254 72% 56%)" opacity="0.44"/><rect x="529.0" y="21.6" width="4.9" height="4.9" fill="hsl(14 78% 62%)" opacity="0.62"/><rect x="563.6" y="21.9" width="4.2" height="4.2" fill="hsl(254 72% 56%)" opacity="0.52"/><rect x="598.2" y="22.2" width="3.6" height="3.6" fill="hsl(254 72% 56%)" opacity="0.44"/><rect x="632.6" y="22.3" width="3.3" height="3.3" fill="hsl(170 68% 60%)" opacity="0.40"/><rect x="769.6" y="22.2" width="3.7" height="3.7" fill="hsl(254 72% 56%)" opacity="0.45"/><rect x="803.7" y="22.0" width="3.9" height="3.9" fill="hsl(254 72% 56%)" opacity="0.49"/><rect x="906.3" y="21.8" width="4.4" height="4.4" fill="hsl(14 78% 62%)" opacity="0.56"/><rect x="14.8" y="69.6" width="4.8" height="4.8" fill="hsl(14 78% 62%)" opacity="0.60"/><rect x="83.8" y="70.0" width="3.9" height="3.9" fill="hsl(254 72% 56%)" opacity="0.48"/><rect x="255.2" y="70.1" width="3.8" height="3.8" fill="hsl(254 72% 56%)" opacity="0.47"/><rect x="289.7" y="70.2" width="3.6" height="3.6" fill="hsl(254 72% 56%)" opacity="0.43"/><rect x="324.2" y="70.5" width="3.0" height="3.0" fill="hsl(170 68% 60%)" opacity="0.35"/><rect x="357.6" y="69.6" width="4.7" height="4.7" fill="hsl(14 78% 62%)" opacity="0.59"/><rect x="392.0" y="69.7" width="4.5" height="4.5" fill="hsl(14 78% 62%)" opacity="0.57"/><rect x="426.3" y="69.7" width="4.6" height="4.6" fill="hsl(14 78% 62%)" opacity="0.58"/><rect x="495.4" y="70.3" width="3.4" height="3.4" fill="hsl(170 68% 60%)" opacity="0.42"/><rect x="597.8" y="69.8" width="4.4" height="4.4" fill="hsl(14 78% 62%)" opacity="0.55"/><rect x="632.0" y="69.7" width="4.5" height="4.5" fill="hsl(14 78% 62%)" opacity="0.57"/><rect x="701.2" y="70.3" width="3.4" height="3.4" fill="hsl(170 68% 60%)" opacity="0.41"/><rect x="769.7" y="70.3" width="3.4" height="3.4" fill="hsl(170 68% 60%)" opacity="0.42"/><rect x="803.6" y="69.8" width="4.3" height="4.3" fill="hsl(14 78% 62%)" opacity="0.54"/><rect x="837.9" y="69.9" width="4.1" height="4.1" fill="hsl(254 72% 56%)" opacity="0.51"/><rect x="872.1" y="69.8" width="4.3" height="4.3" fill="hsl(14 78% 62%)" opacity="0.54"/><rect x="907.0" y="70.5" width="3.1" height="3.1" fill="hsl(170 68% 60%)" opacity="0.37"/><rect x="940.9" y="70.0" width="3.9" height="3.9" fill="hsl(254 72% 56%)" opacity="0.49"/><rect x="14.8" y="117.7" width="4.6" height="4.6" fill="hsl(14 78% 62%)" opacity="0.58"/><rect x="49.9" y="118.4" width="3.1" height="3.1" fill="hsl(170 68% 60%)" opacity="0.37"/><rect x="118.0" y="118.0" width="4.0" height="4.0" fill="hsl(254 72% 56%)" opacity="0.49"/><rect x="152.0" y="117.7" width="4.6" height="4.6" fill="hsl(14 78% 62%)" opacity="0.58"/><rect x="186.2" y="117.6" width="4.7" height="4.7" fill="hsl(14 78% 62%)" opacity="0.59"/><rect x="255.3" y="118.2" width="3.7" height="3.7" fill="hsl(254 72% 56%)" opacity="0.45"/><rect x="289.2" y="117.8" width="4.4" height="4.4" fill="hsl(14 78% 62%)" opacity="0.55"/><rect x="357.9" y="117.9" width="4.2" height="4.2" fill="hsl(254 72% 56%)" opacity="0.53"/><rect x="426.2" y="117.7" width="4.7" height="4.7" fill="hsl(14 78% 62%)" opacity="0.59"/><rect x="529.8" y="118.3" width="3.3" height="3.3" fill="hsl(170 68% 60%)" opacity="0.40"/><rect x="667.1" y="118.5" width="3.0" height="3.0" fill="hsl(170 68% 60%)" opacity="0.35"/><rect x="769.4" y="117.9" width="4.1" height="4.1" fill="hsl(254 72% 56%)" opacity="0.51"/><rect x="837.8" y="117.8" width="4.5" height="4.5" fill="hsl(14 78% 62%)" opacity="0.56"/><rect x="872.0" y="117.7" width="4.5" height="4.5" fill="hsl(14 78% 62%)" opacity="0.56"/><rect x="906.8" y="118.2" width="3.6" height="3.6" fill="hsl(254 72% 56%)" opacity="0.44"/><rect x="118.3" y="166.3" width="3.4" height="3.4" fill="hsl(170 68% 60%)" opacity="0.41"/><rect x="186.2" y="165.7" width="4.7" height="4.7" fill="hsl(14 78% 62%)" opacity="0.59"/><rect x="221.2" y="166.3" width="3.3" height="3.3" fill="hsl(170 68% 60%)" opacity="0.40"/><rect x="289.7" y="166.3" width="3.4" height="3.4" fill="hsl(170 68% 60%)" opacity="0.42"/><rect x="323.4" y="165.7" width="4.6" height="4.6" fill="hsl(14 78% 62%)" opacity="0.58"/><rect x="358.2" y="166.2" width="3.5" height="3.5" fill="hsl(254 72% 56%)" opacity="0.43"/><rect x="461.3" y="166.4" width="3.1" height="3.1" fill="hsl(170 68% 60%)" opacity="0.37"/><rect x="495.3" y="166.2" width="3.6" height="3.6" fill="hsl(254 72% 56%)" opacity="0.44"/><rect x="631.9" y="165.6" width="4.9" height="4.9" fill="hsl(14 78% 62%)" opacity="0.61"/><rect x="666.3" y="165.7" width="4.5" height="4.5" fill="hsl(14 78% 62%)" opacity="0.57"/><rect x="701.3" y="166.5" width="3.1" height="3.1" fill="hsl(170 68% 60%)" opacity="0.37"/><rect x="735.0" y="165.9" width="4.2" height="4.2" fill="hsl(254 72% 56%)" opacity="0.52"/><rect x="769.5" y="166.0" width="3.9" height="3.9" fill="hsl(254 72% 56%)" opacity="0.48"/><rect x="804.2" y="166.5" width="3.0" height="3.0" fill="hsl(170 68% 60%)" opacity="0.36"/><rect x="940.5" y="165.6" width="4.8" height="4.8" fill="hsl(14 78% 62%)" opacity="0.61"/><rect x="49.0" y="213.6" width="4.8" height="4.8" fill="hsl(14 78% 62%)" opacity="0.61"/><rect x="152.2" y="213.9" width="4.2" height="4.2" fill="hsl(254 72% 56%)" opacity="0.53"/><rect x="186.9" y="214.3" width="3.3" height="3.3" fill="hsl(170 68% 60%)" opacity="0.40"/><rect x="254.7" y="213.6" width="4.8" height="4.8" fill="hsl(14 78% 62%)" opacity="0.61"/><rect x="289.3" y="213.9" width="4.2" height="4.2" fill="hsl(254 72% 56%)" opacity="0.53"/><rect x="426.7" y="214.1" width="3.7" height="3.7" fill="hsl(254 72% 56%)" opacity="0.45"/><rect x="495.6" y="214.5" width="3.1" height="3.1" fill="hsl(170 68% 60%)" opacity="0.37"/><rect x="597.9" y="213.9" width="4.3" height="4.3" fill="hsl(14 78% 62%)" opacity="0.53"/><rect x="666.4" y="213.9" width="4.3" height="4.3" fill="hsl(14 78% 62%)" opacity="0.53"/><rect x="700.6" y="213.8" width="4.5" height="4.5" fill="hsl(14 78% 62%)" opacity="0.56"/><rect x="837.7" y="213.7" width="4.6" height="4.6" fill="hsl(14 78% 62%)" opacity="0.58"/><rect x="152.3" y="262.1" width="3.9" height="3.9" fill="hsl(254 72% 56%)" opacity="0.48"/><rect x="186.2" y="261.7" width="4.7" height="4.7" fill="hsl(14 78% 62%)" opacity="0.59"/><rect x="221.1" y="262.3" width="3.4" height="3.4" fill="hsl(170 68% 60%)" opacity="0.41"/><rect x="289.6" y="262.2" width="3.6" height="3.6" fill="hsl(254 72% 56%)" opacity="0.44"/><rect x="324.0" y="262.3" width="3.5" height="3.5" fill="hsl(170 68% 60%)" opacity="0.42"/><rect x="358.0" y="262.0" width="4.1" height="4.1" fill="hsl(254 72% 56%)" opacity="0.51"/><rect x="391.9" y="261.6" width="4.7" height="4.7" fill="hsl(14 78% 62%)" opacity="0.59"/><rect x="495.4" y="262.2" width="3.6" height="3.6" fill="hsl(254 72% 56%)" opacity="0.43"/><rect x="632.3" y="262.0" width="4.0" height="4.0" fill="hsl(254 72% 56%)" opacity="0.49"/><rect x="666.6" y="262.0" width="4.0" height="4.0" fill="hsl(254 72% 56%)" opacity="0.49"/><rect x="701.4" y="262.5" width="2.9" height="2.9" fill="hsl(170 68% 60%)" opacity="0.35"/><rect x="735.4" y="262.3" width="3.4" height="3.4" fill="hsl(170 68% 60%)" opacity="0.41"/><rect x="769.0" y="261.6" width="4.9" height="4.9" fill="hsl(14 78% 62%)" opacity="0.62"/><rect x="838.5" y="262.5" width="3.0" height="3.0" fill="hsl(170 68% 60%)" opacity="0.35"/><rect x="83.4" y="309.7" width="4.6" height="4.6" fill="hsl(14 78% 62%)" opacity="0.57"/><rect x="118.4" y="310.4" width="3.2" height="3.2" fill="hsl(170 68% 60%)" opacity="0.39"/><rect x="187.0" y="310.5" width="3.1" height="3.1" fill="hsl(170 68% 60%)" opacity="0.36"/><rect x="254.7" y="309.6" width="4.8" height="4.8" fill="hsl(14 78% 62%)" opacity="0.61"/><rect x="289.6" y="310.2" width="3.6" height="3.6" fill="hsl(254 72% 56%)" opacity="0.44"/><rect x="323.4" y="309.6" width="4.7" height="4.7" fill="hsl(14 78% 62%)" opacity="0.59"/><rect x="392.4" y="310.1" width="3.8" height="3.8" fill="hsl(254 72% 56%)" opacity="0.46"/><rect x="427.0" y="310.5" width="3.1" height="3.1" fill="hsl(170 68% 60%)" opacity="0.37"/><rect x="460.6" y="309.7" width="4.6" height="4.6" fill="hsl(14 78% 62%)" opacity="0.57"/><rect x="495.3" y="310.2" width="3.7" height="3.7" fill="hsl(254 72% 56%)" opacity="0.45"/><rect x="529.1" y="309.7" width="4.6" height="4.6" fill="hsl(14 78% 62%)" opacity="0.58"/><rect x="563.7" y="310.0" width="4.0" height="4.0" fill="hsl(254 72% 56%)" opacity="0.49"/><rect x="701.2" y="310.3" width="3.3" height="3.3" fill="hsl(170 68% 60%)" opacity="0.40"/><rect x="803.8" y="310.1" width="3.8" height="3.8" fill="hsl(254 72% 56%)" opacity="0.47"/><rect x="838.5" y="310.5" width="3.0" height="3.0" fill="hsl(170 68% 60%)" opacity="0.35"/><rect x="872.5" y="310.2" width="3.7" height="3.7" fill="hsl(254 72% 56%)" opacity="0.45"/><rect x="906.1" y="309.6" width="4.9" height="4.9" fill="hsl(14 78% 62%)" opacity="0.62"/><rect x="15.5" y="358.3" width="3.3" height="3.3" fill="hsl(170 68% 60%)" opacity="0.40"/><rect x="152.3" y="358.0" width="3.9" height="3.9" fill="hsl(254 72% 56%)" opacity="0.48"/><rect x="289.1" y="357.7" width="4.6" height="4.6" fill="hsl(14 78% 62%)" opacity="0.58"/><rect x="323.9" y="358.2" width="3.6" height="3.6" fill="hsl(254 72% 56%)" opacity="0.44"/><rect x="391.9" y="357.6" width="4.9" height="4.9" fill="hsl(14 78% 62%)" opacity="0.61"/><rect x="460.8" y="358.0" width="4.1" height="4.1" fill="hsl(254 72% 56%)" opacity="0.50"/><rect x="495.1" y="357.9" width="4.1" height="4.1" fill="hsl(254 72% 56%)" opacity="0.51"/><rect x="564.0" y="358.3" width="3.4" height="3.4" fill="hsl(170 68% 60%)" opacity="0.41"/><rect x="632.5" y="358.2" width="3.6" height="3.6" fill="hsl(254 72% 56%)" opacity="0.44"/><rect x="735.5" y="358.4" width="3.3" height="3.3" fill="hsl(170 68% 60%)" opacity="0.39"/><rect x="769.5" y="358.1" width="3.9" height="3.9" fill="hsl(254 72% 56%)" opacity="0.48"/><rect x="803.5" y="357.8" width="4.4" height="4.4" fill="hsl(14 78% 62%)" opacity="0.55"/><rect x="906.3" y="357.8" width="4.5" height="4.5" fill="hsl(14 78% 62%)" opacity="0.56"/><rect x="941.0" y="358.1" width="3.8" height="3.8" fill="hsl(254 72% 56%)" opacity="0.46"/><rect x="15.6" y="406.5" width="3.1" height="3.1" fill="hsl(170 68% 60%)" opacity="0.37"/><rect x="117.7" y="405.7" width="4.5" height="4.5" fill="hsl(14 78% 62%)" opacity="0.57"/><rect x="220.4" y="405.6" width="4.9" height="4.9" fill="hsl(14 78% 62%)" opacity="0.62"/><rect x="255.3" y="406.1" width="3.7" height="3.7" fill="hsl(254 72% 56%)" opacity="0.45"/><rect x="323.6" y="405.9" width="4.1" height="4.1" fill="hsl(254 72% 56%)" opacity="0.51"/><rect x="358.4" y="406.4" width="3.2" height="3.2" fill="hsl(170 68% 60%)" opacity="0.39"/><rect x="495.5" y="406.4" width="3.2" height="3.2" fill="hsl(170 68% 60%)" opacity="0.39"/><rect x="529.5" y="406.0" width="3.9" height="3.9" fill="hsl(254 72% 56%)" opacity="0.49"/><rect x="632.3" y="406.0" width="4.0" height="4.0" fill="hsl(254 72% 56%)" opacity="0.50"/><rect x="700.7" y="405.9" width="4.2" height="4.2" fill="hsl(254 72% 56%)" opacity="0.53"/><rect x="735.4" y="406.2" width="3.6" height="3.6" fill="hsl(254 72% 56%)" opacity="0.44"/><rect x="803.9" y="406.1" width="3.7" height="3.7" fill="hsl(254 72% 56%)" opacity="0.46"/><rect x="837.6" y="405.6" width="4.7" height="4.7" fill="hsl(14 78% 62%)" opacity="0.60"/><rect x="872.8" y="406.5" width="3.1" height="3.1" fill="hsl(170 68% 60%)" opacity="0.37"/><rect x="907.1" y="406.6" width="2.9" height="2.9" fill="hsl(170 68% 60%)" opacity="0.34"/><rect x="941.2" y="406.4" width="3.2" height="3.2" fill="hsl(170 68% 60%)" opacity="0.39"/><rect x="15.5" y="454.4" width="3.2" height="3.2" fill="hsl(170 68% 60%)" opacity="0.39"/><rect x="49.1" y="453.7" width="4.6" height="4.6" fill="hsl(14 78% 62%)" opacity="0.58"/><rect x="83.6" y="453.9" width="4.2" height="4.2" fill="hsl(254 72% 56%)" opacity="0.52"/><rect x="117.7" y="453.7" width="4.6" height="4.6" fill="hsl(14 78% 62%)" opacity="0.58"/><rect x="220.8" y="453.9" width="4.2" height="4.2" fill="hsl(254 72% 56%)" opacity="0.52"/><rect x="289.8" y="454.4" width="3.3" height="3.3" fill="hsl(170 68% 60%)" opacity="0.40"/><rect x="323.6" y="453.9" width="4.3" height="4.3" fill="hsl(14 78% 62%)" opacity="0.54"/><rect x="392.4" y="454.2" width="3.7" height="3.7" fill="hsl(254 72% 56%)" opacity="0.45"/><rect x="529.2" y="453.8" width="4.4" height="4.4" fill="hsl(14 78% 62%)" opacity="0.55"/><rect x="563.5" y="453.8" width="4.4" height="4.4" fill="hsl(14 78% 62%)" opacity="0.55"/><rect x="598.2" y="454.2" width="3.7" height="3.7" fill="hsl(254 72% 56%)" opacity="0.45"/><rect x="632.5" y="454.2" width="3.6" height="3.6" fill="hsl(254 72% 56%)" opacity="0.44"/><rect x="666.2" y="453.7" width="4.7" height="4.7" fill="hsl(14 78% 62%)" opacity="0.59"/><rect x="700.9" y="454.0" width="4.0" height="4.0" fill="hsl(254 72% 56%)" opacity="0.49"/><rect x="735.6" y="454.5" width="3.1" height="3.1" fill="hsl(170 68% 60%)" opacity="0.36"/><rect x="769.8" y="454.4" width="3.3" height="3.3" fill="hsl(170 68% 60%)" opacity="0.40"/><rect x="804.0" y="454.3" width="3.4" height="3.4" fill="hsl(170 68% 60%)" opacity="0.41"/><rect x="837.8" y="453.8" width="4.4" height="4.4" fill="hsl(14 78% 62%)" opacity="0.55"/><rect x="872.3" y="454.0" width="4.0" height="4.0" fill="hsl(254 72% 56%)" opacity="0.50"/>
  <rect x="-240" y="0" width="240" height="480" fill="url(#g1ldsvh)" opacity="0.06">
    <animate attributeName="x" from="-240" to="960" dur="15.9s" repeatCount="indefinite"/>
  </rect>
  <rect x="0" y="0" width="960" height="480" fill="none" stroke="hsl(254 72% 56%)" stroke-opacity="0.16" stroke-width="2"/>
</svg>
